# xmcd
#
# Track frame offsets: 
#        150
#        18212
#        36380
#        54380
#        72812
#        90500
#        109102
#        126752
#        144200
#        161877
#        179885
#        198187
#        216752
#        235595
#        253595
#        271192
#        289307
#        307662
#        337697
#
# Disc length: 4795 seconds
#
# Revision: 3
# Processed by: cddbd v1.5.2PL0 Copyright (c) Steve Scherf et al.
# Submitted via: ExactAudioCopyFreeDBPlugin 1.0
#
DISCID=0612b913
DTITLE=Various Artist - SUPER EUROBEAT Vol.155
DYEAR=2005
DGENRE=EUROBEAT
TTITLE0=KEVIN JOHNSON - DON'T SAY GOODBYE
TTITLE1=D-TEAM - SPEED CAR
TTITLE2=DIGITAL PLANET - CALL ME TONIGHT
TTITLE3=CHERRY - EUROHEAT
TTITLE4=GIACOMO CARIA - LIGHT MY FIRE
TTITLE5=DEE DEE and REGINA - BEAUTIFUL DAY
TTITLE6=GO GO GIRLS - BABY BOY
TTITLE7=TAM ARROW - RAMBO DEMOLITION
TTITLE8=LOLITA - HOT and CRAZY LOVE
TTITLE9=PRETTY WOMAN - SWEET HEART
TTITLE10=PRISCILLA - THE BEAT GOES ON
TTITLE11=BAD GANG - BODY GUARD
TTITLE12=LEILA - WHEN I LOOK AT YOU
TTITLE13=VIRGINELLE - LOVE IS...
TTITLE14=PAMSY - HELLO
TTITLE15=NUAGE featuring SONIA - I'M NEVER GONNA LET YOU DOWN AND FORG
TTITLE15=ET YOU
TTITLE16=BIG TOWN GUY - JOHN 'N' MARY DANCE
TTITLE17=FASTWAY - 777
TTITLE18=CCCD
EXTD=
EXTT0=
EXTT1=
EXTT2=
EXTT3=
EXTT4=
EXTT5=
EXTT6=
EXTT7=
EXTT8=
EXTT9=
EXTT10=
EXTT11=
EXTT12=
EXTT13=
EXTT14=
EXTT15=
EXTT16=
EXTT17=
EXTT18=
PLAYORDER=
